<svg width="16" height="16" viewBox="0 0 16 16" fill="none" xmlns="http://www.w3.org/2000/svg">
<path fill-rule="evenodd" clip-rule="evenodd" d="M2.66667 1.77778C2.17575 1.77778 1.77778 2.17575 1.77778 2.66667V3.55556C1.77778 4.04648 1.37981 4.44444 0.888889 4.44444C0.397969 4.44444 0 4.04648 0 3.55556V2.66667C0 1.19391 1.19391 0 2.66667 0H13.3333C14.8061 0 16 1.19391 16 2.66667V13.3333C16 14.8061 14.8061 16 13.3333 16H2.66667C1.19391 16 0 14.8061 0 13.3333V12.4444C0 11.9535 0.397969 11.5556 0.888889 11.5556C1.37981 11.5556 1.77778 11.9535 1.77778 12.4444V13.3333C1.77778 13.8243 2.17575 14.2222 2.66667 14.2222H13.3333C13.8243 14.2222 14.2222 13.8243 14.2222 13.3333V2.66667C14.2222 2.17575 13.8243 1.77778 13.3333 1.77778H2.66667ZM6.92702 4.26035C7.27415 3.91322 7.83696 3.91322 8.18409 4.26035L11.2952 7.37146C11.6261 7.70236 11.6438 8.23316 11.3356 8.58534L8.22451 12.1409C7.90124 12.5103 7.33967 12.5478 6.97022 12.2245C6.60076 11.9012 6.56333 11.3397 6.8866 10.9702L8.70776 8.88889H0.888889C0.397969 8.88889 0 8.49092 0 8C0 7.50908 0.397969 7.11111 0.888889 7.11111H8.5207L6.92702 5.51743C6.57988 5.1703 6.57988 4.60748 6.92702 4.26035Z" fill="#fff" fill-opacity="1"/>
</svg>
